# xmcd
#
# Track frame offsets: 
#        150
#        21977
#        50842
#        73712
#        92857
#        114105
#        139217
#        164792
#        185607
#        204690
#        233970
#        277255
#        294237
#
# Disc length: 4227 seconds
#
# Revision: 3
# Processed by: cddbd v1.5.1PL2 Copyright (c) Steve Scherf et al.
# Submitted via: freedbtool 1.11
#
DISCID=d110810d
DTITLE=Stevie Ray Vaughan and Double Trouble - Live Alive
DYEAR=1986
DGENRE=Blues
TTITLE0=Say What!
TTITLE1=Ain't Gone 'N' Give Up On Love
TTITLE2=Pride and Joy
TTITLE3=Mary Had A Little Lamb
TTITLE4=Superstition
TTITLE5=I'm Leaving You (Commit A Crime)
TTITLE6=Cold Shot
TTITLE7=Willie The Wimp
TTITLE8=Look At Little Sister
TTITLE9=Texas Flood
TTITLE10=Voodoo Chile (Slight Return)
TTITLE11=Love Struck Baby
TTITLE12=Change It
EXTD=
EXTT0=
EXTT1=
EXTT2=
EXTT3=
EXTT4=
EXTT5=
EXTT6=
EXTT7=
EXTT8=
EXTT9=
EXTT10=
EXTT11=
EXTT12=
PLAYORDER=
